#tb 0: 1/25
0,          0,          0,        1,   202752, 0xd5a1e49f
0,          1,          1,        1,   202752, 0x08352d61
0,          2,          2,        1,   202752, 0x43f78f47
0,          3,          3,        1,   202752, 0xfb5910f4
0,          4,          4,        1,   202752, 0xd98e8739
